<svg xmlns="http://www.w3.org/2000/svg" xmlns:xlink="http://www.w3.org/1999/xlink" id="Layer_1" width="32" height="32" x="0" y="0" enable-background="new 0 0 32 32" version="1.1" viewBox="0 0 32 32" xml:space="preserve"><g><polygon fill="#231F20" points="32 4 0 4 0 0 32 0 32 4"/><polygon fill="#231F20" points="20 12 0 12 0 8 20 8 20 12"/><polygon fill="#231F20" points="32 24 0 24 0 20 32 20 32 24"/><polygon fill="#231F20" points="24 32 0 32 0 28 24 28 24 32"/><path fill="#231F20" d="M32,30c0,1.104-0.898,2-2,2c-1.109,0-2.004-0.896-2.004-2s0.895-2,2.004-2 C31.102,28,32,28.896,32,30z"/></g></svg>