<svg xmlns="http://www.w3.org/2000/svg" xmlns:xlink="http://www.w3.org/1999/xlink" width="32" height="32" x="0" y="0" enable-background="new 0 0 32 32" version="1.1" viewBox="0 0 32 32" xml:space="preserve"><g id="ampersand_x5F_32x32"><path fill="#010101" d="M29.844,24C31.214,21.646,32,18.922,32,16c0-8.836-7.164-16-16-16S0,7.164,0,16s7.164,16,16,16 c4.417,0,8.417-1.789,11.312-4.688l-2.833-2.833C22.308,26.656,19.308,28,16,28C9.383,28,4,22.617,4,16S9.383,4,16,4 s12,5.383,12,12c0,1.422-0.273,2.781-0.734,4.047L27.234,20H24V8.042h-8c-4.422,0-8,3.583-8,8c0,4.419,3.578,8,8,8 c1.836,0,3.508-0.644,4.859-1.683C21.586,23.328,22.695,24,24,24H29.844z M20,14.008v2.034c0,2.208-1.797,4-4,4s-4-1.792-4-4 c0-2.206,1.797-4,4-4h4V14.008z"/></g></svg>