<svg xmlns="http://www.w3.org/2000/svg" xmlns:xlink="http://www.w3.org/1999/xlink" id="Layer_1" width="16" height="32" x="0" y="0" enable-background="new 0 0 16 32" version="1.1" viewBox="0 0 16 32" xml:space="preserve"><g><circle cx="9" cy="9" r=".969" fill="#231F20"/><path fill="#231F20" d="M14,0H2C0.895,0,0,0.896,0,2v22c0,4.417,3.582,8,8,8s8-3.583,8-8V2C16,0.896,15.105,0,14,0z M5.031,20c-0.535,0-0.969-0.433-0.969-0.969s0.434-0.969,0.969-0.969S6,18.495,6,19.031S5.566,20,5.031,20z M10,24 c-1.105,0-2-0.896-2-2s0.895-2,2-2s2,0.896,2,2S11.105,24,10,24z M12,16h-1.945c-0.016-1.104-0.914-2-2.023-2s-2.008,0.896-2.023,2 H4V4h8V16z"/></g></svg>