<svg xmlns="http://www.w3.org/2000/svg" xmlns:xlink="http://www.w3.org/1999/xlink" id="Layer_1" width="32" height="32" x="0" y="0" enable-background="new 0 0 32 32" version="1.1" viewBox="0 0 32 32" xml:space="preserve"><g><polygon fill="#231F20" points="32 32 0 32 0 4 4 4 4 28 28 28 28 4 32 4 32 32"/><rect width="4" height="4" x="6" y="12" fill="#231F20"/><rect width="4" height="4" x="14" y="12.008" fill="#231F20"/><rect width="4" height="4" x="22" y="12" fill="#231F20"/><rect width="4" height="4" x="6" y="20" fill="#231F20"/><rect width="4" height="4" x="14" y="20" fill="#231F20"/><polygon fill="#231F20" points="22 24 22 20 26 20"/><path fill="#231F20" d="M8,6V2c0-1.104,0.895-2,2-2s2,0.896,2,2v4c0,1.104-0.895,2-2,2S8,7.104,8,6z"/><path fill="#231F20" d="M20,6V2c0-1.104,0.895-2,2-2s2,0.896,2,2v4c0,1.104-0.895,2-2,2S20,7.104,20,6z"/></g></svg>
