<svg xmlns="http://www.w3.org/2000/svg" xmlns:xlink="http://www.w3.org/1999/xlink" id="Layer_1" width="32" height="28" x="0" y="0" enable-background="new 0 0 32 28" version="1.1" viewBox="0 0 32 28" xml:space="preserve"><path fill="#231F20" d="M20,4c4.414,0,8,3.586,8,8s-3.586,8-8,8h-8c-2.609,0-4.933,1.258-6.394,3.203	C4.633,22.469,4,21.305,4,20V10c0-3.308,2.695-6,6-6H20 M20,0H10C4.477,0,0,4.477,0,10v10c0,4.417,3.586,8,8,8c0-2.211,1.793-4,4-4	h8c6.629,0,12-5.375,12-12S26.629,0,20,0L20,0z"/></svg>