<svg xmlns="http://www.w3.org/2000/svg" xmlns:xlink="http://www.w3.org/1999/xlink" id="Layer_1" width="32" height="32" x="0" y="0" enable-background="new 0 0 32 32" version="1.1" viewBox="0 0 32 32" xml:space="preserve"><g><path fill="#231F20" d="M20,20h-2V2c0-1.105-0.891-2-2-2c-1.102,0-2,0.895-2,2v18h-2v4h2v6c0,1.105,0.898,2,2,2 c1.109,0,2-0.895,2-2v-6h2V20z"/><path fill="#231F20" d="M32,8h-2V2c0-1.105-0.891-2-2-2c-1.102,0-2,0.895-2,2v6h-2v4h2v18c0,1.105,0.898,2,2,2 c1.109,0,2-0.895,2-2V12h2V8z"/><path fill="#231F20" d="M8,12H6V2c0-1.105-0.891-2-2-2C2.898,0,2,0.895,2,2v10H0v4h2v14c0,1.105,0.898,2,2,2 c1.109,0,2-0.895,2-2V16h2V12z"/></g></svg>
