<svg xmlns="http://www.w3.org/2000/svg" xmlns:xlink="http://www.w3.org/1999/xlink" width="32" height="32" x="0" y="0" enable-background="new 0 0 32 32" version="1.1" viewBox="0 0 32 32" xml:space="preserve"><g id="fullscreen_x5F_alt_x5F_32x32"><g><polygon fill="#231F20" points="29.414 26.586 22.828 20 20 22.828 26.586 29.414 24 32 32 32 32 24"/><polygon fill="#231F20" points="2.586 5.414 9.172 12 12 9.172 5.414 2.586 8 0 0 0 0 8"/><polygon fill="#231F20" points="26.586 2.586 20 9.172 22.828 12 29.414 5.414 32 8 32 0 24 0"/><polygon fill="#231F20" points="12 22.828 9.172 20 2.586 26.586 0 24 0 32 8 32 5.414 29.414"/></g></g></svg>