<svg xmlns="http://www.w3.org/2000/svg" xmlns:xlink="http://www.w3.org/1999/xlink" id="Layer_1" width="24" height="32" x="0" y="0" enable-background="new 0 0 24 32" version="1.1" viewBox="0 0 24 32" xml:space="preserve"><path fill="#231F20" d="M16,0H8C3.582,0,0,3.582,0,8v16c0,4.418,3.582,8,8,8h8c4.418,0,8-3.582,8-8V8C24,3.582,20.418,0,16,0	z M12,30.062c-1.138,0-2.062-0.924-2.062-2.062s0.924-2.062,2.062-2.062c1.139,0,2.062,0.924,2.062,2.062S13.139,30.062,12,30.062z M20,24H4V8c0-2.206,1.794-4,4-4h8c2.205,0,4,1.794,4,4V24z"/></svg>
