<svg xmlns="http://www.w3.org/2000/svg" xmlns:xlink="http://www.w3.org/1999/xlink" id="Layer_1" width="32" height="32" x="0" y="0" enable-background="new 0 0 32 32" version="1.1" viewBox="0 0 32 32" xml:space="preserve"><g><g><path fill="#231F20" d="M22,0c-5.523,0-10,4.477-10,10c0,0.623,0.074,1.227,0.184,1.816L0,24v8h12v-4h4v-4h4v-4 l0.184-0.184C20.773,19.926,21.379,20,22,20c5.523,0,10-4.477,10-10S27.523,0,22,0z M22.008,12c-1.105,0-2-0.895-2-2s0.895-2,2-2 s2,0.895,2,2S23.113,12,22.008,12z"/></g></g></svg>
