<svg xmlns="http://www.w3.org/2000/svg" xmlns:xlink="http://www.w3.org/1999/xlink" id="Layer_1" width="32" height="28" x="0" y="0" enable-background="new 0 0 32 28" version="1.1" viewBox="0 0 32 28" xml:space="preserve"><g><path d="M19.946,20l6.007-8L32,20h-4v2c0,3.308-2.688,6-6,6H10c-3.309,0-6-2.692-6-6v-2h4v2c0,1.102,0.899,2,2,2h12 c1.103,0,2-0.898,2-2v-2H19.946z"/><path d="M12.056,8l-6.009,8L0,8h4V6c0-3.308,2.691-6,6-6h12c3.312,0,6,2.692,6,6v2h-4V6c0-1.102-0.897-2-2-2H10 C8.899,4,8,4.898,8,6v2H12.056z"/></g></svg>