<svg xmlns="http://www.w3.org/2000/svg" xmlns:xlink="http://www.w3.org/1999/xlink" id="Layer_1" width="32" height="32" x="0" y="0" enable-background="new 0 0 32 32" version="1.1" viewBox="0 0 32 32" xml:space="preserve"><g><path d="M32,32h-4.569C27.431,16.875,15.125,4.573,0,4.573V0C17.641,0,32,14.355,32,32L32,32z"/><path d="M22.859,32h-4.574c0-10.082-8.207-18.285-18.285-18.285V9.143C12.603,9.143,22.859,19.398,22.859,32L22.859,32z"/><path d="M13.719,32H9.141c0-5.043-4.094-9.143-9.141-9.143v-4.572C7.562,18.285,13.719,24.438,13.719,32L13.719,32z"/><path d="M4.571,32c0-2.523-2.04-4.57-4.571-4.57V32H4.571z"/></g></svg>