<svg xmlns="http://www.w3.org/2000/svg" xmlns:xlink="http://www.w3.org/1999/xlink" width="28" height="32" x="0" y="0" enable-background="new 0 0 28 32" version="1.1" viewBox="0 0 28 32" xml:space="preserve"><g id="reload_x5F_alt2_x5F_28x32"><g><path d="M23.883,6.086l-2.82,2.831C22.953,10.808,24,13.323,24,16c0,5.516-4.484,10-10,10v-2l-4,4l4,4v-2c7.719,0,14-6.281,14-14 C28,12.255,26.539,8.734,23.883,6.086z"/><path d="M18,4l-4-4v2C6.281,2,0,8.281,0,16c0,3.745,1.461,7.266,4.117,9.914l2.82-2.831C5.047,21.192,4,18.677,4,16 C4,10.484,8.484,6,14,6v2L18,4z"/></g></g></svg>