<svg xmlns="http://www.w3.org/2000/svg" xmlns:xlink="http://www.w3.org/1999/xlink" id="Layer_1" width="32" height="32" x="0" y="0" enable-background="new 0 0 32 32" version="1.1" viewBox="0 0 32 32" xml:space="preserve"><g><path fill="#231F20" d="M32,4h-4h-4c0-2.211-1.789-4-4-4h-8C9.789,0,8,1.789,8,4H4H0v4h4v18c0,3.312,2.688,6,6,6h12 c3.312,0,6-2.688,6-6V8h4V4z M24,26c0,1.102-0.898,2-2,2H10c-1.102,0-2-0.898-2-2V8h16V26z"/><circle cx="12" cy="22" r="2" fill="#231F20"/><circle cx="12" cy="14" r="2" fill="#231F20"/><circle cx="20" cy="22" r="2" fill="#231F20"/><circle cx="20" cy="14" r="2" fill="#231F20"/></g></svg>