<svg xmlns="http://www.w3.org/2000/svg" xmlns:xlink="http://www.w3.org/1999/xlink" id="Layer_1" width="24.008" height="32" x="0" y="0" enable-background="new 0 0 24.008 32" version="1.1" viewBox="0 0 24.008 32" xml:space="preserve"><g><path fill="#231F20" d="M14.008,0c-5.516,0-10,4.489-10,10h4c0-3.305,2.691-6,6-6s6,2.695,6,6v2H0v14c0,3.312,2.691,6,6,6 h12.008c3.309,0,6-2.688,6-6V10C24.008,4.489,19.523,0,14.008,0z M18.008,28H6c-1.102,0-2-0.896-2-2V16h16.008v10 C20.008,27.104,19.109,28,18.008,28z"/><path fill="#231F20" d="M14.004,22c0,1.109-0.895,2-2,2s-2-0.891-2-2c0-1.102,0.895-2,2-2S14.004,20.898,14.004,22z"/></g></svg>